# xmcd
#
# Track frame offsets:
#	150
#	20453
#	40497
#	59542
#	75095
#	96769
#	118028
#	133876
#	149632
#	169911
#	191073
#	212670
#
# Disc length: 3172 seconds
#
# Revision: 1
# Processed by: cddbd v1.5.2PL0 Copyright (c) Steve Scherf et al.
# Submitted via: EasyCDDAExtractor 16.0.0.1
#
DISCID=af0c620c
DTITLE=Various Artist - Come and Get it
DYEAR=1900
DGENRE=Country
TTITLE0=01. I Wanna Be With You /
TTITLE1=01. I Wanna Be With You /
TTITLE2=01. I Wanna Be With You /
TTITLE3=01. I Wanna Be With You /
TTITLE4=01. I Wanna Be With You /
TTITLE5=01. I Wanna Be With You /
TTITLE6=02. the Real Thing /
TTITLE7=02. the Real Thing /
TTITLE8=02. the Real Thing /
TTITLE9=02. the Real Thing /
TTITLE10=02. the Real Thing /
TTITLE11=02. the Real Thing /
EXTD=
EXTT0=
EXTT1=
EXTT2=
EXTT3=
EXTT4=
EXTT5=
EXTT6=
EXTT7=
EXTT8=
EXTT9=
EXTT10=
EXTT11=
PLAYORDER=
